<?xml version="1.0" encoding="UTF-8" standalone="no"?>
<!DOCTYPE svg PUBLIC "-//W3C//DTD SVG 1.1//EN"
 "http://www.w3.org/Graphics/SVG/1.1/DTD/svg11.dtd">
<!-- Generated by graphviz version 2.47.0 (20210316.0004)
 -->
<!-- Title: dependencies Pages: 1 -->
<svg width="1716pt" height="284pt"
 viewBox="0.00 0.00 1716.00 284.00" xmlns="http://www.w3.org/2000/svg" xmlns:xlink="http://www.w3.org/1999/xlink">
<g id="graph0" class="graph" transform="scale(1 1) rotate(0) translate(4 280)">
<title>dependencies</title>
<polygon fill="white" stroke="transparent" points="-4,4 -4,-280 1712,-280 1712,4 -4,4"/>
<text text-anchor="start" x="833.01" y="-42.4" font-family="sans-serif" font-weight="bold" font-size="14.00">Legend</text>
<polygon fill="#ffffb3" stroke="transparent" points="620,-10 620,-30 640,-30 640,-10 620,-10"/>
<text text-anchor="start" x="643.63" y="-15.4" font-family="sans-serif" font-size="14.00"> &#160;Declarations</text>
<polygon fill="#8dd3c7" stroke="transparent" points="733,-10 733,-30 753,-30 753,-10 733,-10"/>
<text text-anchor="start" x="756.73" y="-15.4" font-family="sans-serif" font-size="14.00"> &#160;Module</text>
<polygon fill="#80b1d3" stroke="transparent" points="819,-10 819,-30 839,-30 839,-10 819,-10"/>
<text text-anchor="start" x="842.78" y="-15.4" font-family="sans-serif" font-size="14.00"> &#160;Bootstrap</text>
<polygon fill="#fdb462" stroke="transparent" points="916,-10 916,-30 936,-30 936,-10 916,-10"/>
<text text-anchor="start" x="939.67" y="-15.4" font-family="sans-serif" font-size="14.00"> &#160;Providers</text>
<polygon fill="#fb8072" stroke="transparent" points="1012,-10 1012,-30 1032,-30 1032,-10 1012,-10"/>
<text text-anchor="start" x="1035.73" y="-15.4" font-family="sans-serif" font-size="14.00"> &#160;Exports</text>
<g id="clust1" class="cluster">
<title>cluster_AppModule</title>
<polygon fill="none" stroke="black" stroke-dasharray="1,5" points="8,-70 8,-268 1700,-268 1700,-70 8,-70"/>
</g>
<g id="clust15" class="cluster">
<title>cluster_AppModule_bootstrap</title>
<polygon fill="none" stroke="black" points="774,-208 774,-260 898,-260 898,-208 774,-208"/>
</g>
<g id="clust13" class="cluster">
<title>cluster_AppModule_imports</title>
<polygon fill="none" stroke="black" points="1548,-78 1548,-130 1692,-130 1692,-78 1548,-78"/>
</g>
<g id="clust2" class="cluster">
<title>cluster_AppModule_declarations</title>
<polygon fill="none" stroke="black" points="16,-78 16,-130 1540,-130 1540,-78 16,-78"/>
</g>
<!-- AppComponent -->
<g id="node1" class="node">
<title>AppComponent</title>
<polygon fill="#ffffb3" stroke="black" points="1531.94,-122 1426.06,-122 1426.06,-86 1531.94,-86 1531.94,-122"/>
<text text-anchor="middle" x="1479" y="-99.8" font-family="Times,serif" font-size="14.00">AppComponent</text>
</g>
<!-- AppModule -->
<g id="node11" class="node">
<title>AppModule</title>
<polygon fill="#8dd3c7" stroke="black" points="877.66,-187 874.66,-191 853.66,-191 850.66,-187 794.34,-187 794.34,-151 877.66,-151 877.66,-187"/>
<text text-anchor="middle" x="836" y="-164.8" font-family="Times,serif" font-size="14.00">AppModule</text>
</g>
<!-- AppComponent&#45;&gt;AppModule -->
<g id="edge1" class="edge">
<title>AppComponent&#45;&gt;AppModule</title>
<path fill="none" stroke="black" d="M1479,-122.28C1479,-143.32 1479,-175 1479,-175 1479,-175 887.69,-175 887.69,-175"/>
<polygon fill="black" stroke="black" points="887.69,-171.5 877.69,-175 887.69,-178.5 887.69,-171.5"/>
</g>
<!-- DialogAddPlayerComponent -->
<g id="node2" class="node">
<title>DialogAddPlayerComponent</title>
<polygon fill="#ffffb3" stroke="black" points="1408.8,-122 1229.2,-122 1229.2,-86 1408.8,-86 1408.8,-122"/>
<text text-anchor="middle" x="1319" y="-99.8" font-family="Times,serif" font-size="14.00">DialogAddPlayerComponent</text>
</g>
<!-- DialogAddPlayerComponent&#45;&gt;AppModule -->
<g id="edge2" class="edge">
<title>DialogAddPlayerComponent&#45;&gt;AppModule</title>
<path fill="none" stroke="black" d="M1319,-122.11C1319,-141.34 1319,-169 1319,-169 1319,-169 888.02,-169 888.02,-169"/>
<polygon fill="black" stroke="black" points="888.02,-165.5 878.02,-169 888.02,-172.5 888.02,-165.5"/>
</g>
<!-- EditPlayerComponent -->
<g id="node3" class="node">
<title>EditPlayerComponent</title>
<polygon fill="#ffffb3" stroke="black" points="1211.43,-122 1070.57,-122 1070.57,-86 1211.43,-86 1211.43,-122"/>
<text text-anchor="middle" x="1141" y="-99.8" font-family="Times,serif" font-size="14.00">EditPlayerComponent</text>
</g>
<!-- EditPlayerComponent&#45;&gt;AppModule -->
<g id="edge3" class="edge">
<title>EditPlayerComponent&#45;&gt;AppModule</title>
<path fill="none" stroke="black" d="M1141,-122.02C1141,-139.37 1141,-163 1141,-163 1141,-163 887.77,-163 887.77,-163"/>
<polygon fill="black" stroke="black" points="887.77,-159.5 877.77,-163 887.77,-166.5 887.77,-159.5"/>
</g>
<!-- EndscreenComponent -->
<g id="node4" class="node">
<title>EndscreenComponent</title>
<polygon fill="#ffffb3" stroke="black" points="1052.63,-122 913.37,-122 913.37,-86 1052.63,-86 1052.63,-122"/>
<text text-anchor="middle" x="983" y="-99.8" font-family="Times,serif" font-size="14.00">EndscreenComponent</text>
</g>
<!-- EndscreenComponent&#45;&gt;AppModule -->
<g id="edge4" class="edge">
<title>EndscreenComponent&#45;&gt;AppModule</title>
<path fill="none" stroke="black" d="M983,-122.24C983,-137.57 983,-157 983,-157 983,-157 887.73,-157 887.73,-157"/>
<polygon fill="black" stroke="black" points="887.73,-153.5 877.73,-157 887.73,-160.5 887.73,-153.5"/>
</g>
<!-- FooterComponent -->
<g id="node5" class="node">
<title>FooterComponent</title>
<polygon fill="#ffffb3" stroke="black" points="894.88,-122 777.12,-122 777.12,-86 894.88,-86 894.88,-122"/>
<text text-anchor="middle" x="836" y="-99.8" font-family="Times,serif" font-size="14.00">FooterComponent</text>
</g>
<!-- FooterComponent&#45;&gt;AppModule -->
<g id="edge5" class="edge">
<title>FooterComponent&#45;&gt;AppModule</title>
<path fill="none" stroke="black" d="M836,-122.11C836,-122.11 836,-140.99 836,-140.99"/>
<polygon fill="black" stroke="black" points="832.5,-140.99 836,-150.99 839.5,-140.99 832.5,-140.99"/>
</g>
<!-- GameComponent -->
<g id="node6" class="node">
<title>GameComponent</title>
<polygon fill="#ffffb3" stroke="black" points="759.26,-122 644.74,-122 644.74,-86 759.26,-86 759.26,-122"/>
<text text-anchor="middle" x="702" y="-99.8" font-family="Times,serif" font-size="14.00">GameComponent</text>
</g>
<!-- GameComponent&#45;&gt;AppModule -->
<g id="edge6" class="edge">
<title>GameComponent&#45;&gt;AppModule</title>
<path fill="none" stroke="black" d="M702,-122.24C702,-137.57 702,-157 702,-157 702,-157 784.34,-157 784.34,-157"/>
<polygon fill="black" stroke="black" points="784.34,-160.5 794.34,-157 784.34,-153.5 784.34,-160.5"/>
</g>
<!-- GameInfoComponent -->
<g id="node7" class="node">
<title>GameInfoComponent</title>
<polygon fill="#ffffb3" stroke="black" points="627.08,-122 488.92,-122 488.92,-86 627.08,-86 627.08,-122"/>
<text text-anchor="middle" x="558" y="-99.8" font-family="Times,serif" font-size="14.00">GameInfoComponent</text>
</g>
<!-- GameInfoComponent&#45;&gt;AppModule -->
<g id="edge7" class="edge">
<title>GameInfoComponent&#45;&gt;AppModule</title>
<path fill="none" stroke="black" d="M558,-122.02C558,-139.37 558,-163 558,-163 558,-163 784.08,-163 784.08,-163"/>
<polygon fill="black" stroke="black" points="784.08,-166.5 794.08,-163 784.08,-159.5 784.08,-166.5"/>
</g>
<!-- LegalNoticeComponent -->
<g id="node8" class="node">
<title>LegalNoticeComponent</title>
<polygon fill="#ffffb3" stroke="black" points="471.02,-122 320.98,-122 320.98,-86 471.02,-86 471.02,-122"/>
<text text-anchor="middle" x="396" y="-99.8" font-family="Times,serif" font-size="14.00">LegalNoticeComponent</text>
</g>
<!-- LegalNoticeComponent&#45;&gt;AppModule -->
<g id="edge8" class="edge">
<title>LegalNoticeComponent&#45;&gt;AppModule</title>
<path fill="none" stroke="black" d="M396,-122.11C396,-141.34 396,-169 396,-169 396,-169 784.21,-169 784.21,-169"/>
<polygon fill="black" stroke="black" points="784.21,-172.5 794.21,-169 784.21,-165.5 784.21,-172.5"/>
</g>
<!-- PlayerComponent -->
<g id="node9" class="node">
<title>PlayerComponent</title>
<polygon fill="#ffffb3" stroke="black" points="302.6,-122 185.4,-122 185.4,-86 302.6,-86 302.6,-122"/>
<text text-anchor="middle" x="244" y="-99.8" font-family="Times,serif" font-size="14.00">PlayerComponent</text>
</g>
<!-- PlayerComponent&#45;&gt;AppModule -->
<g id="edge9" class="edge">
<title>PlayerComponent&#45;&gt;AppModule</title>
<path fill="none" stroke="black" d="M244,-122.28C244,-143.32 244,-175 244,-175 244,-175 783.9,-175 783.9,-175"/>
<polygon fill="black" stroke="black" points="783.9,-178.5 793.9,-175 783.9,-171.5 783.9,-178.5"/>
</g>
<!-- StartscreenComponent -->
<g id="node10" class="node">
<title>StartscreenComponent</title>
<polygon fill="#ffffb3" stroke="black" points="167.52,-122 24.48,-122 24.48,-86 167.52,-86 167.52,-122"/>
<text text-anchor="middle" x="96" y="-99.8" font-family="Times,serif" font-size="14.00">StartscreenComponent</text>
</g>
<!-- StartscreenComponent&#45;&gt;AppModule -->
<g id="edge10" class="edge">
<title>StartscreenComponent&#45;&gt;AppModule</title>
<path fill="none" stroke="black" d="M96,-122.25C96,-145.02 96,-181 96,-181 96,-181 784.09,-181 784.09,-181"/>
<polygon fill="black" stroke="black" points="784.09,-184.5 794.09,-181 784.09,-177.5 784.09,-184.5"/>
</g>
<!-- AppComponent  -->
<g id="node13" class="node">
<title>AppComponent </title>
<polygon fill="#80b1d3" stroke="black" points="890.44,-252 781.56,-252 781.56,-216 890.44,-216 890.44,-252"/>
<text text-anchor="middle" x="836" y="-229.8" font-family="Times,serif" font-size="14.00">AppComponent </text>
</g>
<!-- AppModule&#45;&gt;AppComponent  -->
<g id="edge12" class="edge">
<title>AppModule&#45;&gt;AppComponent </title>
<path fill="none" stroke="black" stroke-dasharray="1,5" d="M836,-187.11C836,-187.11 836,-205.99 836,-205.99"/>
<polygon fill="black" stroke="black" points="832.5,-205.99 836,-215.99 839.5,-205.99 832.5,-205.99"/>
</g>
<!-- AppRoutingModule -->
<g id="node12" class="node">
<title>AppRoutingModule</title>
<polygon fill="#8dd3c7" stroke="black" points="1684.27,-122 1681.27,-126 1660.27,-126 1657.27,-122 1555.73,-122 1555.73,-86 1684.27,-86 1684.27,-122"/>
<text text-anchor="middle" x="1620" y="-99.8" font-family="Times,serif" font-size="14.00">AppRoutingModule</text>
</g>
<!-- AppRoutingModule&#45;&gt;AppModule -->
<g id="edge11" class="edge">
<title>AppRoutingModule&#45;&gt;AppModule</title>
<path fill="none" stroke="black" d="M1620,-122.25C1620,-145.02 1620,-181 1620,-181 1620,-181 887.87,-181 887.87,-181"/>
<polygon fill="black" stroke="black" points="887.87,-177.5 877.87,-181 887.87,-184.5 887.87,-177.5"/>
</g>
</g>
</svg>
